<svg width="200" height="35" fill="none" xmlns="http://www.w3.org/2000/svg"><path fill-rule="evenodd" clip-rule="evenodd" d="M166.41 6.397c-1.734 0-3.128-1.393-3.128-3.184 0-1.763 1.422-3.213 3.185-3.213 1.762 0 3.212 1.393 3.212 3.156a3.246 3.246 0 0 1-3.269 3.241Zm-64.624 18.708V3.326h5.26v5.971s2.331-1.99 5.373-1.99c5.146 0 8.188 4.35 8.188 9.098 0 4.861-3.099 9.126-8.017 9.126-2.303 0-4.009-.654-5.629-2.246v1.82h-5.175Zm-11.287.426c-5.373 0-9.07-3.27-9.07-9.126 0-5.289 3.782-9.098 8.928-9.098 5.032 0 8.586 3.326 8.586 9.553l.001.15c.001.089.004.169.006.245v.001c.006.214.011.4-.007.656H86.661c.455 2.075 2.104 3.07 4.094 3.07 1.635 0 2.74-1.087 3.623-2.212l.158-.204s2.578 1.486 3.788 2.213l.335.203c-1.536 2.73-4.492 4.55-8.16 4.55Zm-32.355-.426L51.492 7.648h5.572l3.469 9.666 3.184-9.666h4.236l3.355 9.723 3.44-9.723h5.487l-6.567 17.457H69.09l-3.24-9.383-3.128 9.383h-4.578ZM90.3 11.742c1.649 0 2.559.796 3.184 2.473H86.86c.654-1.62 1.649-2.473 3.44-2.473Zm20.925.455c2.388 0 4.123 1.876 4.123 4.094 0 2.474-1.308 4.549-3.895 4.549-2.758 0-4.549-1.734-4.549-4.435 0-2.53 1.848-4.208 4.321-4.208Zm20.812 13.505c-5.345 0-9.439-4.379-9.439-9.24 0-5.232 4.179-9.155 9.552-9.155 5.289 0 9.411 3.81 9.411 9.07 0 5.316-3.838 9.325-9.524 9.325Zm.085-13.42c2.474 0 4.179 1.763 4.179 4.009 0 2.73-1.592 4.407-4.207 4.407-2.417 0-4.208-1.82-4.208-4.151 0-2.388 1.677-4.265 4.236-4.265Zm22.716 12.823h-4.719l-7.307-17.457h5.914l3.81 10.207 3.582-10.207h5.572l-6.852 17.457Zm14.244-17.457h-5.288v17.457h5.288V7.648Zm2.844 8.814c0 4.861 4.094 9.24 9.439 9.24 5.686 0 9.524-4.01 9.524-9.326 0-5.26-4.122-9.07-9.411-9.07-5.373 0-9.552 3.924-9.552 9.156Zm13.703-.171c0-2.246-1.706-4.009-4.179-4.009-2.559 0-4.236 1.877-4.236 4.265 0 2.331 1.791 4.15 4.208 4.15 2.615 0 4.207-1.677 4.207-4.406Z" fill="#fff"/><path d="M196.064 18.808a3.288 3.288 0 0 1 3.269 3.27 3.288 3.288 0 0 1-3.269 3.269 3.288 3.288 0 0 1-3.27-3.27 3.288 3.288 0 0 1 3.27-3.27Z" fill="#EDB91B"/><path fill-rule="evenodd" clip-rule="evenodd" d="M28.506 26.821c-1.012 1.685-3.454 1.685-4.465 0L9.94 3.322h28.066c2.023 0 3.273 2.208 2.232 3.943L28.506 26.821Z" fill="#EDB91B"/><path fill-rule="evenodd" clip-rule="evenodd" d="M14.1 26.821c1.01 1.685 3.453 1.685 4.465 0L32.664 3.322H4.599c-2.024 0-3.274 2.208-2.233 3.943l11.733 19.556Z" fill="#fff"/><path fill-rule="evenodd" clip-rule="evenodd" d="M9.941 3.322h22.723l-11.36 18.936L9.94 3.322Z" fill="#EEF0E7"/></svg>